<svg version="1.1" id="Layer_1" xmlns="http://www.w3.org/2000/svg" xmlns:xlink="http://www.w3.org/1999/xlink" x="0px" y="0px"
	 width="100%" viewBox="0 0 512 502" enable-background="new 0 0 512 502" xml:space="preserve">
<path fill="#6A7BC9" opacity="1.000000" stroke="none"
	  d="
M20.319523,217.334839
	C21.844820,214.618347 23.278297,212.292160 24.697680,209.957413
	C31.083662,199.453018 38.314159,189.708145 48.794674,182.831833
	C51.899338,180.794876 55.018780,178.752304 57.914738,176.440796
	C58.909767,175.646591 59.872124,173.967194 59.763096,172.793060
	C59.441971,169.334686 59.259808,165.598923 57.800480,162.558670
	C52.771877,152.082520 54.353443,140.988174 54.886356,130.238281
	C55.295380,121.987427 57.386833,113.530487 60.300934,105.753838
	C66.292488,89.764626 77.421829,77.363464 90.898407,67.161583
	C101.356148,59.244980 112.520927,52.268635 125.922852,50.892437
	C136.909058,49.764301 148.018341,49.040386 159.038635,49.352577
	C165.114594,49.524704 171.105209,52.260754 177.162735,53.723152
	C180.155029,54.445545 181.925797,54.087143 183.429276,50.336620
	C185.027802,46.348984 188.743332,43.126461 191.817917,39.834572
	C195.933304,35.428280 200.599945,31.516424 204.524414,26.957182
	C209.887848,20.726276 217.754227,19.298965 224.402679,15.546679
	C241.068527,6.140748 259.205780,7.140889 276.340637,10.662421
	C290.833069,13.640885 305.020233,20.392225 315.552917,32.161552
	C320.218933,37.375397 324.816437,42.650555 329.446350,47.896713
	C329.556335,48.021309 329.714661,48.112946 329.795685,48.251877
	C330.897430,50.141312 331.850494,53.528217 333.110535,53.645649
	C336.652283,53.975731 340.339844,53.076298 343.932709,52.448879
	C350.039551,51.382458 356.075562,49.727245 362.220551,49.115841
	C367.996460,48.541153 373.951477,48.400249 379.690063,49.138515
	C388.208374,50.234402 397.014008,50.868885 404.276550,56.514801
	C405.384521,57.376156 407.144714,57.341343 408.497498,57.954414
	C416.205963,61.447872 423.086395,66.225174 428.940918,72.291489
	C435.625122,79.217445 441.984680,86.456718 448.483337,93.561630
	C448.593903,93.682510 448.713715,93.812218 448.772919,93.960304
	C451.885254,101.745148 456.822021,109.333862 457.692902,117.363380
	C459.205597,131.310791 458.458649,145.537415 458.089447,159.632050
	C457.990540,163.408234 455.858521,167.140198 454.605286,170.874146
	C453.677338,173.638962 454.533234,174.804596 457.123291,176.678345
	C464.364716,181.917145 471.572601,187.506226 477.569855,194.074539
	C483.449280,200.513794 488.318451,208.043457 492.678955,215.640961
	C495.457001,220.481339 497.632477,226.222931 498.088501,231.725327
	C499.046448,243.283951 498.964905,254.955444 498.785645,266.572510
	C498.658051,274.838501 495.166168,282.159515 490.651306,288.993317
	C486.407318,295.417175 482.883606,302.448547 477.886078,308.208923
	C471.892761,315.117065 465.435852,321.950958 456.703979,325.672150
	C451.793854,327.764679 454.397400,332.081055 455.489197,333.581268
	C459.526733,339.129242 458.564240,345.471252 458.862366,351.298950
	C459.386902,361.550781 458.964783,371.949493 457.764984,382.148621
	C457.183655,387.090607 453.942932,391.719910 451.904663,396.490082
	C451.648102,397.090546 451.256256,397.663452 451.139191,398.288818
	C449.137573,408.980530 441.406006,416.183716 435.318512,424.394745
	C430.199341,431.299622 422.755066,435.076477 415.801300,439.692200
	C402.769287,448.342529 388.211212,450.878082 373.206055,453.614990
	C361.274139,455.791290 351.125580,453.043182 340.607056,448.993530
	C338.627838,448.231537 336.389557,447.906921 334.262207,447.869263
	C333.270905,447.851746 331.393219,448.997040 331.389252,449.624634
	C331.345856,456.478790 325.514221,459.320740 321.730316,463.321747
	C316.050293,469.327728 309.829529,474.890594 303.384247,480.077179
	C299.914856,482.869110 295.721497,485.367706 291.462189,486.441620
	C283.370605,488.481842 276.071106,493.353210 267.259033,492.886108
	C257.623932,492.375427 247.854065,493.091522 238.358276,491.749329
	C232.473557,490.917572 226.988312,487.253479 221.329407,484.847504
	C221.035767,484.722656 220.810501,484.331085 220.528183,484.301086
	C213.366211,483.540039 208.205307,479.548553 203.568436,474.351532
	C199.900726,470.240662 195.741028,466.570190 191.826675,462.677185
	C190.213440,461.072723 188.518646,459.514801 187.136230,457.723328
	C185.613022,455.749420 183.847672,453.688873 183.197189,451.381531
	C182.305817,448.219757 181.348038,446.681091 177.750824,447.890320
	C171.685471,449.929199 165.557800,451.822205 159.366516,453.430939
	C156.051453,454.292328 152.333633,455.410400 149.171432,454.714233
	C139.729553,452.635712 129.927673,453.237549 120.625420,449.508575
	C112.867813,446.398773 104.606293,444.727417 97.780952,439.390594
	C93.395554,435.961609 87.898621,433.728973 84.131203,429.784180
	C77.412346,422.748932 71.619911,414.828094 65.466934,407.255768
	C65.176651,406.898529 65.109177,406.338348 65.000778,405.858490
	C63.143707,397.637482 59.713985,389.847595 57.283298,381.830017
	C54.561203,372.851196 55.699745,364.338837 55.091805,355.666199
	C54.848003,352.188232 56.838512,348.605042 57.416679,345.006256
	C58.336967,339.277954 59.015530,333.504700 59.545506,327.727417
	C59.613945,326.981354 58.347290,325.739532 57.430634,325.333588
	C47.019901,320.723846 39.451756,312.917999 32.967690,303.864258
	C29.287397,298.725433 25.118069,293.847198 22.123243,288.333282
	C19.346382,283.220642 16.926640,277.574921 15.953249,271.889404
	C13.611330,258.210388 13.739417,244.339706 15.941908,230.621338
	C16.650780,226.206085 18.755222,222.014908 20.319523,217.334839
M186.555923,104.705597
	C185.677094,107.672119 184.145187,110.616463 184.043579,113.609375
	C183.754745,122.116867 180.341324,129.661072 176.239075,136.559433
	C172.245697,143.274719 166.157913,148.707184 161.442978,155.040329
	C155.845688,162.558640 148.065903,167.372574 139.963547,170.853745
	C130.855743,174.766876 120.852234,176.630386 111.188759,179.198807
	C106.972366,180.319473 102.632477,180.975479 97.808746,181.951782
	C98.625572,183.770370 99.092674,185.574051 100.122421,186.959518
	C103.190811,191.087906 106.246239,195.268524 109.732162,199.035019
	C116.826035,206.699829 119.071098,216.877243 123.160271,225.754089
	C120.895058,226.093826 118.605301,226.318390 116.369217,226.794846
	C109.619102,228.233139 102.889847,229.769318 95.555069,230.711136
	C94.645302,223.606430 91.807693,217.253036 87.360062,211.760193
	C81.379150,204.373703 74.952576,197.348770 68.939735,189.986969
	C67.193283,187.848694 66.268867,188.334106 64.651146,189.896164
	C62.147015,192.314178 59.686344,194.935608 56.750195,196.717743
	C48.346363,201.818542 41.996540,208.655548 38.142536,217.650330
	C35.695225,223.362030 33.726921,229.278976 31.075001,235.626068
	C30.709692,238.739685 30.344381,241.853317 29.990826,245.905289
	C28.715757,256.710236 31.276461,267.187775 34.458561,277.160431
	C37.568512,286.906982 43.689194,295.407318 51.761871,302.177307
	C54.449356,304.431122 57.043644,306.834259 59.425617,309.405304
	C63.036556,313.302856 69.675957,312.846588 72.579407,308.598236
	C74.866142,305.252319 77.649559,302.247742 80.182625,299.067841
	C84.403183,293.769501 89.821182,289.000366 92.510376,283.009796
	C96.216660,274.753510 100.379402,266.278778 99.255569,256.474396
	C98.557693,250.386093 98.981125,244.169235 99.834892,237.935959
	C108.250977,237.664078 116.667061,237.392212 125.135231,237.717941
	C125.441895,238.454056 125.748566,239.190186 125.734436,240.705429
	C125.486504,245.797012 125.238571,250.888596 125.027222,256.916260
	C126.927940,271.592987 120.432480,284.215271 114.650497,296.812134
	C112.216484,302.114990 107.680702,306.465027 104.027824,311.192139
	C101.649109,314.270416 99.139717,317.247742 96.785721,320.150818
	C108.980133,322.845551 121.134621,323.350281 132.180710,328.813690
	C137.417999,331.404022 143.395721,332.854858 148.035782,336.208588
	C154.462402,340.853485 160.176361,346.578094 165.754288,352.272552
	C169.887680,356.492310 174.023727,361.007629 176.865097,366.111420
	C179.742188,371.279388 181.281921,377.259857 182.940018,383.018982
	C184.536880,388.565399 185.536163,394.283875 186.080780,400.123352
	C182.777084,403.937744 183.132660,408.690369 187.581604,410.859131
	C193.365707,406.695557 199.038254,402.363159 204.978821,398.436279
	C208.171112,396.326080 212.186615,395.389496 215.202179,393.096741
	C225.352051,385.379852 237.161636,382.485565 249.372620,381.146332
	C261.493286,379.817047 273.545990,381.074005 284.908661,385.769196
	C292.674194,388.978027 300.452271,392.396637 307.636749,396.702545
	C314.519684,400.827698 320.643829,406.218964 327.843719,410.889435
	C331.155518,407.381744 330.869812,402.500946 327.113708,399.120270
	C328.063080,396.266541 329.560120,393.469452 329.862091,390.548798
	C330.884613,380.658691 333.125671,371.372742 339.813507,363.566528
	C345.618195,356.791138 350.487122,349.053986 356.995819,343.077332
	C368.245483,332.747345 381.837494,326.506073 397.106903,324.153107
	C403.776550,323.125336 410.378174,321.656311 417.010651,320.387665
	C417.718567,319.599579 418.426453,318.811462 419.134369,318.023346
	C416.527283,316.593018 412.995453,315.805176 411.476440,313.618866
	C405.556427,305.098267 398.906738,297.254364 395.053650,287.071625
	C391.168732,276.804810 388.159851,266.918488 389.031952,255.050629
	C388.657745,249.662308 388.283539,244.274002 388.112061,238.414246
	C388.378082,237.981384 388.644073,237.548523 389.850403,237.058533
	C398.266235,237.375717 406.682037,237.692902 415.073090,238.945618
	C415.045624,246.931854 415.263397,254.928604 414.921356,262.901367
	C414.582672,270.796417 420.010559,276.711975 421.536469,283.928406
	C421.633667,284.388062 422.677734,284.572083 423.064178,285.057220
	C429.163025,292.714050 435.276031,300.360657 441.273529,308.096619
	C443.729492,311.264465 446.124420,314.127655 450.525970,311.277069
	C452.638092,309.909241 454.921722,308.669403 456.684540,306.924042
	C462.663116,301.004639 469.534576,295.595123 474.038849,288.672546
	C480.431335,278.847961 484.388519,267.594391 483.920471,255.503052
	C483.608002,247.429855 483.545288,239.131287 481.570770,231.392899
	C479.116394,221.773987 475.234467,212.415680 467.216583,205.588745
	C461.078308,200.362183 455.030518,195.024933 449.065948,189.601105
	C447.060089,187.777084 446.350464,188.549683 444.880005,190.352982
	C440.101501,196.213181 434.608215,201.521088 430.133698,207.589859
	C425.815063,213.447205 420.159424,218.710266 419.401276,226.680664
	C419.252533,228.244537 418.381165,229.739685 416.984070,231.165894
	C415.015656,231.007599 412.995911,231.078201 411.088013,230.650162
	C404.028809,229.066376 397.006500,227.317993 390.050415,224.979477
	C393.871490,217.440903 397.308807,209.673874 401.622284,202.428421
	C405.879700,195.277130 413.006409,189.973251 416.069336,181.749786
	C410.015839,180.742371 404.624023,180.080734 399.347870,178.901550
	C393.934479,177.691711 388.503693,176.324356 383.320892,174.383957
	C378.092926,172.426666 373.013733,169.941101 368.143616,167.199753
	C364.122437,164.936249 360.114410,162.368256 356.793854,159.206970
	C351.792786,154.445786 346.740967,149.491028 342.912842,143.808685
	C338.373535,137.070587 334.544159,129.703522 331.477875,122.173058
	C329.163574,116.489471 328.532501,110.120491 327.866028,103.841164
	C331.221008,100.053299 330.919373,94.428329 327.096100,91.380943
	C326.634918,91.161522 325.942017,90.625000 325.745941,90.768303
	C317.517975,96.782013 309.334381,102.856491 300.714691,108.348923
	C298.500244,104.097641 296.184998,99.895035 294.102173,95.580215
	C292.321564,91.891426 290.807648,88.073914 289.917175,84.211678
	C292.462433,82.644386 295.118134,81.227280 297.517670,79.461929
	C299.411713,78.068497 300.901703,76.138878 302.725983,74.635292
	C308.192230,70.129951 313.734436,65.716774 319.146454,61.348755
	C308.462799,36.555210 282.010864,20.423502 249.228470,23.057652
	C226.692505,24.868471 200.209015,43.260258 195.258057,61.305164
	C201.371628,66.712608 207.238678,72.252548 213.501266,77.301956
	C216.930954,80.067268 221.028687,82.004036 224.302353,84.751892
	C222.932419,87.456406 221.493271,90.128479 220.207321,92.872337
	C217.710617,98.199600 215.299957,103.567192 212.323746,108.509407
	C207.001511,104.595779 201.671204,100.693062 196.360397,96.763992
	C193.640076,94.751427 190.969574,92.670570 188.206833,90.719276
	C188.076248,90.627037 187.266678,91.496132 186.045685,92.104935
	C182.780899,95.814484 183.159775,101.460472 186.555923,104.705597
M172.026688,404.141113
	C171.233795,401.024078 174.059219,396.794830 169.098587,394.089691
	C168.497009,390.658356 168.337341,387.075226 167.219696,383.821167
	C161.449493,367.021088 149.743011,355.012604 134.990417,345.936584
	C122.845512,338.464813 109.238045,335.373871 95.041710,335.029083
	C88.108879,334.860657 84.316666,338.139679 83.045273,345.148376
	C78.767876,368.727783 83.316223,390.325623 99.826355,407.996216
	C109.840202,418.713959 122.513435,425.876648 138.172653,426.883545
	C141.152771,429.535522 153.715897,430.019165 156.516495,427.541260
	C156.838516,427.256348 156.866013,426.638580 157.867859,426.081055
	C161.644699,425.106049 165.386032,423.947083 169.208664,423.209473
	C172.780289,422.520264 173.048752,420.334351 172.754471,417.369812
	C172.347885,413.274078 172.221222,409.150574 172.026688,404.141113
M357.167969,426.896820
	C360.189484,429.537720 372.760559,430.007874 375.514587,427.535095
	C375.835968,427.246552 375.864746,426.632172 376.876678,426.074371
	C381.873077,425.039764 387.053070,424.529907 391.827148,422.859833
	C401.369781,419.521637 409.193817,413.793335 415.775726,405.808502
	C418.319702,402.722260 419.380157,398.886841 421.932007,396.316742
	C429.061615,389.136169 431.386658,379.794708 432.541687,370.723114
	C433.622253,362.236145 432.136749,353.258820 430.744049,344.665314
	C429.273285,335.589996 427.864532,334.823364 418.487396,335.081818
	C414.430634,335.193604 410.398315,336.211365 406.355927,336.824219
	C396.082397,338.381714 386.514343,341.036194 377.590546,347.229889
	C367.831665,354.003143 359.039734,361.078094 353.111603,371.576935
	C348.952057,378.943665 345.417511,386.374542 344.090973,395.131287
	C343.402435,398.433777 342.713898,401.736237 342.050964,405.950989
	C341.774292,409.884583 341.562561,413.824158 341.198944,417.749695
	C340.941498,420.528748 341.388916,422.529388 344.663910,423.170715
	C348.803314,423.981323 352.871246,425.156891 357.167969,426.896820
M280.602814,412.961700
	C274.749939,411.437195 268.976105,409.379974 263.027985,408.497375
	C250.029465,406.568573 237.277237,409.273071 226.337357,415.770264
	C215.238480,422.361908 205.578033,431.385162 195.381851,439.462433
	C194.795364,439.927032 194.591232,441.729248 195.004959,442.455811
	C196.956253,445.882538 198.752914,449.557404 201.411163,452.385864
	C205.946640,457.211517 211.406799,461.173920 215.892227,466.039398
	C222.130447,472.806152 230.881042,475.877441 238.718567,477.390015
	C252.590088,480.067047 267.056854,481.168518 281.085388,475.186523
	C289.404510,471.639130 297.913757,468.589142 304.053192,461.822052
	C309.501160,455.817108 314.146851,449.070068 318.900177,442.472992
	C319.333557,441.871521 318.312134,439.601471 317.378937,438.749603
	C314.311401,435.949341 310.709198,433.708374 307.790436,430.776611
	C300.146515,423.098694 292.264069,415.897125 280.602814,412.961700
M410.323486,90.239861
	C409.298004,89.480354 408.346283,88.583588 407.233887,87.985825
	C403.095337,85.761940 398.979309,83.472496 394.714996,81.511780
	C388.121613,78.480194 381.491302,75.814774 374.101593,74.786415
	C363.204681,73.269997 353.470428,78.161461 343.095184,79.300056
	C342.334198,79.383568 341.137909,81.222267 341.199036,82.177444
	C341.728943,90.458252 341.376343,99.020622 343.464447,106.923721
	C346.571594,118.683723 351.295990,129.959244 359.124146,139.756836
	C366.628021,149.148514 375.987274,156.780655 386.627563,160.919449
	C397.788818,165.260880 410.000305,168.347794 422.587341,167.077087
	C425.991943,166.733383 428.696930,166.444977 429.613617,162.462738
	C430.269714,159.612656 432.009918,156.948578 432.330139,154.096390
	C433.379517,144.748993 434.569458,135.453339 431.776062,126.025932
	C429.304657,117.685143 426.839294,109.539207 420.925079,102.876877
	C417.433594,98.943733 414.063263,94.902985 410.323486,90.239861
M88.694672,110.138817
	C86.620285,115.647888 84.174889,121.051453 82.570312,126.694107
	C80.774826,133.008102 80.785408,139.548798 81.762497,146.099152
	C82.397797,150.358170 82.209183,154.754242 83.009430,158.971298
	C84.280022,165.666977 86.083855,166.938538 92.754417,166.994949
	C109.437653,167.136017 124.807770,163.511703 139.031570,153.961578
	C146.994431,148.615143 153.216064,141.965302 158.761520,134.666336
	C170.422073,119.318657 170.653229,100.557320 172.771851,82.480637
	C172.890121,81.471519 171.012695,79.635712 169.712646,79.173592
	C166.787888,78.133957 163.473923,78.129669 160.617554,76.968193
	C151.565781,73.287491 142.242462,75.417358 133.030029,75.246033
	C132.605484,75.238136 132.192307,75.742691 131.739853,75.923576
	C129.208557,76.935547 126.679146,77.954666 124.122795,78.900269
	C123.050491,79.296913 121.781807,79.295616 120.828468,79.858269
	C116.245857,82.562866 111.817101,85.533379 107.191124,88.158180
	C98.535934,93.069176 93.279350,100.822304 88.694672,110.138817
z"/>
	<path fill="#6A29A0" opacity="1.000000" stroke="none"
		  d="
M415.097870,238.010071
	C406.682037,237.692902 398.266235,237.375717 388.918091,237.066864
	C381.845856,236.949844 375.700409,236.946548 369.567383,236.668915
	C361.512848,236.304291 353.468140,235.723572 344.992676,235.243134
	C337.303314,235.195129 330.040497,235.139771 322.282471,235.028107
	C311.394409,234.326828 301.007446,233.548111 290.606445,233.085220
	C283.971832,232.789978 277.315033,233.027206 270.671112,232.887573
	C268.539398,232.842773 266.424500,232.261795 264.288696,232.092255
	C260.191467,231.766998 256.070801,231.220779 251.985458,231.388718
	C246.566620,231.611481 241.180481,232.798325 235.765762,232.919098
	C223.309998,233.196960 210.844620,233.018143 198.385147,233.178741
	C195.961624,233.209976 193.547089,233.939758 190.683243,234.196609
	C188.375504,233.993484 186.512939,233.941101 184.589615,233.594269
	C180.772888,230.870697 170.131668,231.782303 165.733154,234.906067
	C151.862869,235.668991 138.473007,236.394669 125.083145,237.120346
	C116.667061,237.392212 108.250977,237.664078 98.958351,237.937149
	C96.444054,237.733841 94.728004,237.761612 93.195480,237.244965
	C92.135475,236.887634 91.328804,235.778854 90.408928,235.005844
	C91.398384,234.349899 92.383766,233.687698 93.378494,233.039841
	C94.297951,232.441025 95.227409,231.857559 96.152466,231.267334
	C102.889847,229.769318 109.619102,228.233139 116.369217,226.794846
	C118.605301,226.318390 120.895058,226.093826 123.813858,225.455994
	C125.498764,224.430313 126.430939,223.382172 127.577599,223.027527
	C134.626251,220.847565 141.722168,218.820206 148.804794,216.750351
	C153.097565,215.495819 157.346054,213.414505 161.698715,213.162933
	C176.552383,212.304459 176.566635,212.551132 177.401642,197.920563
	C181.799011,195.206131 179.348618,191.200439 179.907959,187.439026
	C180.675766,184.534531 181.211655,181.930786 182.231552,179.532883
	C186.657211,169.127716 191.219742,158.780731 195.741425,148.416458
	C197.988205,143.266525 200.275604,138.134247 202.506454,132.977448
	C205.972641,124.965057 209.406235,116.938576 212.853653,108.918068
	C215.299957,103.567192 217.710617,98.199600 220.207321,92.872337
	C221.493271,90.128479 222.932419,87.456406 224.658447,84.145508
	C228.291138,76.400047 231.710281,69.322243 234.811600,62.107815
	C239.738800,50.645912 244.572922,39.179661 252.531876,29.337677
	C254.786148,26.550066 259.315460,25.993721 261.174652,28.910549
	C264.550598,34.206970 268.300903,39.337414 271.035126,44.955597
	C277.355194,57.941875 283.161224,71.178345 289.175751,84.313339
	C290.807648,88.073914 292.321564,91.891426 294.102173,95.580215
	C296.184998,99.895035 298.500244,104.097641 300.977905,109.018600
	C301.738495,111.612923 301.949127,113.672913 302.782684,115.438873
	C306.456238,123.221825 310.465363,130.848328 314.057556,138.667206
	C318.431641,148.187866 322.670471,157.778305 326.660248,167.465240
	C329.410858,174.143585 331.639374,181.036972 334.074677,188.295288
	C334.809113,191.907822 331.849762,196.231613 336.991638,198.470764
	C337.034119,200.592041 337.070343,202.253967 337.060944,203.915634
	C337.010895,212.745697 337.242157,212.933136 345.843506,213.030136
	C349.302734,213.069153 352.906799,212.855621 356.184601,213.731415
	C362.741241,215.483276 369.149658,217.818527 375.559387,220.082291
	C380.411163,221.795792 385.170105,223.772110 389.970337,225.631485
	C397.006500,227.317993 404.028809,229.066376 411.088013,230.650162
	C412.995911,231.078201 415.015656,231.007599 417.316956,231.396210
	C417.651581,231.927460 417.548065,232.436081 417.670776,232.498260
	C419.628418,233.490433 421.614960,234.425537 423.594940,235.373657
	C421.090729,236.224548 418.589050,237.083069 416.079010,237.916382
	C415.775085,238.017288 415.426025,237.982162 415.097870,238.010071
M299.349060,154.084427
	C296.457123,147.966705 293.565155,141.848984 290.673218,135.731262
	C290.071686,135.951141 289.470154,136.171036 288.868622,136.390915
	C289.211853,138.237000 289.344025,140.154922 289.942841,141.914001
	C291.138489,145.426254 293.830994,148.907104 293.678528,152.300888
	C293.357605,159.445358 297.029785,165.214981 298.660400,171.643845
	C299.155731,173.596771 300.272400,175.392120 301.104492,177.259628
	C301.684052,177.107697 302.263611,176.955750 302.843170,176.803818
	C301.792053,169.474274 300.740936,162.144730 299.349060,154.084427
z"/>
	<path fill="#39457A" opacity="1.000000" stroke="none"
		  d="
M357.068970,426.535950
	C363.010712,426.143524 369.051392,426.112030 375.560638,426.124695
	C375.864746,426.632172 375.835968,427.246552 375.514587,427.535095
	C372.760559,430.007874 360.189484,429.537720 357.068970,426.535950
z"/>
	<path fill="#39457A" opacity="1.000000" stroke="none"
		  d="
M138.072464,426.521790
	C144.013443,426.123901 150.054596,426.087830 156.562927,426.113464
	C156.866013,426.638580 156.838516,427.256348 156.516495,427.541260
	C153.715897,430.019165 141.152771,429.535522 138.072464,426.521790
z"/>
	<path fill="#39457A" opacity="1.000000" stroke="none"
		  d="
M389.020691,255.515472
	C388.090240,255.148361 386.365417,254.297073 386.384918,253.487701
	C386.497284,248.812698 387.021545,244.147614 387.657837,239.182434
	C388.283539,244.274002 388.657745,249.662308 389.020691,255.515472
z"/>
	<path fill="#39457A" opacity="1.000000" stroke="none"
		  d="
M125.894836,240.315857
	C129.048874,244.131622 128.845566,252.510696 125.332031,255.820862
	C125.238571,250.888596 125.486504,245.797012 125.894836,240.315857
z"/>
	<path fill="#414D87" opacity="1.000000" stroke="none"
		  d="
M186.409500,92.011230
	C186.835617,95.655312 186.897919,99.393089 186.903961,103.593719
	C183.159775,101.460472 182.780899,95.814484 186.409500,92.011230
z"/>
	<path fill="#414D87" opacity="1.000000" stroke="none"
		  d="
M327.509155,103.948868
	C327.152283,100.321060 327.152344,96.585548 327.189514,92.383682
	C330.919373,94.428329 331.221008,100.053299 327.509155,103.948868
z"/>
	<path fill="#414D87" opacity="1.000000" stroke="none"
		  d="
M186.439392,400.025055
	C186.839127,403.326843 186.880280,406.726959 186.910004,410.590393
	C183.132660,408.690369 182.777084,403.937744 186.439392,400.025055
z"/>
	<path fill="#414D87" opacity="1.000000" stroke="none"
		  d="
M327.472595,410.971619
	C327.098419,407.652466 327.095337,404.251190 327.147095,400.388245
	C330.869812,402.500946 331.155518,407.381744 327.472595,410.971619
z"/>
	<path fill="#414D87" opacity="1.000000" stroke="none"
		  d="
M172.000687,404.590027
	C167.110352,403.191803 169.695465,399.006500 169.138885,395.377045
	C174.059219,396.794830 171.233795,401.024078 172.000687,404.590027
z"/>
	<path fill="#414D87" opacity="1.000000" stroke="none"
		  d="
M344.447937,395.030273
	C344.390076,398.261414 346.773285,402.189209 342.370239,404.892242
	C342.713898,401.736237 343.402435,398.433777 344.447937,395.030273
z"/>
	<path fill="#414D87" opacity="1.000000" stroke="none"
		  d="
M31.309406,235.364975
	C33.312195,238.487640 34.076546,241.775146 30.303444,244.812851
	C30.344381,241.853317 30.709692,238.739685 31.309406,235.364975
z"/>
	<path fill="#F2A320" opacity="1.000000" stroke="none"
		  d="
M190.683243,234.196594
	C191.247925,235.407394 191.510132,236.473694 191.464157,237.526535
	C191.122238,245.356812 190.391953,252.899536 194.412079,260.544342
	C198.078033,267.515625 199.478638,275.654694 202.186996,283.167572
	C202.984253,285.379089 204.486389,288.477264 206.270538,288.967590
	C210.722137,290.191071 211.334763,294.300751 213.852051,296.894073
	C217.204956,300.348267 218.596512,300.775360 226.593460,301.459900
	C227.574234,304.649872 228.844864,307.851227 233.201370,306.911102
	C234.347961,306.663666 235.490158,305.728760 236.327896,304.825348
	C241.858795,298.861145 246.102692,291.043365 255.895676,291.321503
	C258.325989,291.390533 260.746307,291.812714 263.589691,292.507263
	C264.500885,296.875397 267.594543,295.750732 269.976135,296.010773
	C272.521149,298.909363 275.588593,301.507629 277.473328,304.785858
	C279.624115,308.526886 282.543182,307.671570 284.117981,305.782532
	C286.421600,303.019196 289.270142,302.149384 292.013306,300.521698
	C295.728485,298.317108 302.224304,299.310974 303.232056,292.471100
	C303.568207,290.189636 306.638580,288.015656 308.882904,286.370911
	C313.868652,282.717133 312.551361,276.326324 315.686707,271.759949
	C317.830353,268.637848 317.459625,263.845917 319.455963,260.554413
	C323.839600,253.326782 322.933960,245.652588 322.739868,237.940277
	C322.723145,237.275101 322.710052,236.609848 322.736450,235.514526
	C330.040497,235.139771 337.303314,235.195129 344.992676,235.243134
	C344.377197,239.025482 343.743256,242.991364 342.200195,246.564682
	C339.717468,252.314087 336.713287,257.845978 333.780853,263.391174
	C331.319672,268.045258 331.486633,273.469971 327.367706,277.946075
	C324.086060,281.512238 324.040619,287.922791 322.061981,292.872131
	C320.891022,295.801147 318.766663,298.351654 317.049194,301.058502
	C316.077789,302.589539 315.004669,304.058228 314.076965,305.614349
	C310.856018,311.017120 308.752808,316.971252 304.831085,322.100952
	C302.582489,325.042145 301.523163,329.423920 301.280853,333.242950
	C300.917480,338.970612 301.666901,344.779846 302.138947,350.538361
	C302.215118,351.467560 303.306152,352.313568 303.989258,354.024445
	C304.076691,357.247314 304.102936,359.643799 304.129150,362.040253
	C300.286774,370.094421 294.212799,374.515869 285.015930,375.110046
	C280.049377,375.430908 275.136536,378.277924 270.266602,375.025452
	C267.946381,373.475800 265.854584,371.584137 263.449554,369.681488
	C273.486969,362.734161 279.488495,354.445312 280.380981,342.249847
	C282.566162,337.929199 283.320679,334.283539 280.081726,330.887543
	C279.395599,327.011230 279.116913,323.004120 277.924500,319.290405
	C276.282990,314.178101 272.240204,311.191101 266.945984,310.885651
	C260.341003,310.504608 253.680878,310.510803 247.076340,310.895508
	C242.808121,311.144135 238.691116,312.458771 237.186813,317.397766
	C235.887589,321.663452 234.471634,325.893555 232.965485,330.904755
	C232.645111,335.057495 229.166199,339.122559 234.804214,341.315582
	C235.214569,345.919922 234.962982,350.720459 236.250488,355.064850
	C237.231888,358.376312 239.936081,361.308838 242.306976,364.032959
	C244.029800,366.012482 246.460190,367.376160 248.738434,369.140930
	C245.839111,375.694397 239.933060,378.277771 232.730026,375.894318
	C230.579666,375.182739 228.208496,374.855591 225.936310,374.845581
	C217.532532,374.808533 213.153931,369.659241 210.009201,361.954468
	C209.938461,358.750519 209.899246,356.353455 209.860016,353.956360
	C214.051285,347.048370 213.384186,339.495117 212.508698,332.019714
	C212.009369,327.755920 212.219467,322.901764 206.824966,320.895142
	C206.178070,320.654480 205.988739,318.844757 205.818771,317.727081
	C205.379944,314.841278 202.862244,312.466614 202.348160,310.427673
	C200.673691,303.786377 193.914780,301.138367 191.983917,295.207275
	C190.434265,290.447144 190.490753,284.885315 188.026199,280.759369
	C182.741776,271.912659 179.241913,262.479034 175.805527,252.887421
	C174.375366,248.895599 171.378235,245.489471 169.407700,241.655594
	C168.565598,240.017212 168.526123,237.966309 168.589508,235.670334
	C174.254837,234.788116 179.452606,234.338409 184.650375,233.888718
	C186.512939,233.941101 188.375504,233.993484 190.683243,234.196594
z"/>
	<path fill="#584731" opacity="1.000000" stroke="none"
		  d="
M184.589615,233.594269
	C179.452606,234.338409 174.254837,234.788116 168.600464,235.265106
	C167.720459,235.171478 167.297058,235.050568 166.543610,234.899246
	C170.131668,231.782303 180.772888,230.870697 184.589615,233.594269
z"/>
	<path fill="#6A3BA9" opacity="1.000000" stroke="none"
		  d="
M177.401642,197.920563
	C177.746948,194.695953 178.458252,191.380615 179.534149,187.949890
	C179.348618,191.200439 181.799011,195.206131 177.401642,197.920563
z"/>
	<path fill="#6A3BA9" opacity="1.000000" stroke="none"
		  d="
M334.074677,188.295288
	C339.114471,189.654953 336.179993,193.982117 336.996429,197.563782
	C331.849762,196.231613 334.809113,191.907822 334.074677,188.295288
z"/>
	<path fill="#8884A2" opacity="1.000000" stroke="none"
		  d="
M209.478943,353.990356
	C209.899246,356.353455 209.938461,358.750519 209.924255,361.593994
	C208.602066,360.895752 206.317505,359.753510 206.314850,358.605988
	C206.311325,357.080933 208.086761,355.551788 209.478943,353.990356
z"/>
	<path fill="#8884A2" opacity="1.000000" stroke="none"
		  d="
M304.508118,362.001465
	C304.102936,359.643799 304.076691,357.247314 304.095215,354.403503
	C305.412354,355.088776 307.727295,356.241272 307.706207,357.349243
	C307.676575,358.904419 305.910431,360.426453 304.508118,362.001465
z"/>
	<path fill="#8884A2" opacity="1.000000" stroke="none"
		  d="
M279.931702,331.270874
	C283.320679,334.283539 282.566162,337.929199 280.412384,341.828064
	C279.974457,338.561493 279.878082,335.107849 279.931702,331.270874
z"/>
	<path fill="#8884A2" opacity="1.000000" stroke="none"
		  d="
M234.843292,340.854218
	C229.166199,339.122559 232.645111,335.057495 233.036270,331.306305
	C233.793350,334.092590 234.337845,337.242737 234.843292,340.854218
z"/>
	<path fill="#DE9D3B" opacity="1.000000" stroke="none"
		  d="
M269.940460,295.604858 
	C267.594543,295.750732 264.500885,296.875397 263.983948,292.569580 
	C266.292358,292.502655 269.936768,290.210175 269.940460,295.604858 
z"/>
</svg>